Coordinates
version=1
nRows=16
nColumns=40
inDegrees=yes

Units are S.I. units (second, meters, Newtons, ...)
Angles are in degrees.

endheader
time	pelvis_tilt	pelvis_list	pelvis_rotation	pelvis_tx	pelvis_ty	pelvis_tz	hip_flexion_r	hip_adduction_r	hip_rotation_r	knee_angle_r	knee_angle_r_beta	ankle_angle_r	subtalar_angle_r	mtp_angle_r	hip_flexion_l	hip_adduction_l	hip_rotation_l	knee_angle_l	knee_angle_l_beta	ankle_angle_l	subtalar_angle_l	mtp_angle_l	lumbar_extension	lumbar_bending	lumbar_rotation	arm_flex_r	arm_add_r	arm_rot_r	elbow_flex_r	pro_sup_r	wrist_flex_r	wrist_dev_r	arm_flex_l	arm_add_l	arm_rot_l	elbow_flex_l	pro_sup_l	wrist_flex_l	wrist_dev_l
      8.41842857	     -3.49771053	     -4.44357898	     -3.48034600	      0.93634999	      0.91137515	      0.40786376	     25.44951155	     -8.02457860	     -6.56454403	     64.77676858	     64.77676858	      9.28572413	    -19.41399079	     17.44892906	     17.37567537	     -0.02751325	     -0.12096526	     34.15684469	     34.15684469	     22.61845921	    -17.61164912	      8.84466248	    -11.44554977	      6.59282702	      1.76122707	      5.51333973	    -13.88410881	    -14.33034235	     19.86158476	     47.29156505	      0.00000000	      0.00000000	     20.88224604	    -14.93359099	     12.66264319	     37.14341990	     45.42092739	      0.00000000	      0.00000000
      8.43935714	     -3.63115998	     -4.55343217	     -4.18858238	      0.93449872	      0.91260796	      0.40809733	     27.05375202	     -7.46208250	     -6.17787897	     63.14210717	     63.14210717	     10.21126453	    -19.36101840	     17.19238901	     16.73847312	     -0.28547310	     -0.74870334	     33.43034579	     33.43034579	     22.69585779	    -17.48519724	      8.93188072	    -11.38525999	      6.97904716	      0.84288516	      3.01029158	    -13.32699323	    -14.42057743	     19.09313434	     47.30668649	      0.00000000	      0.00000000	     22.14845706	    -16.11729734	     12.20898261	     37.74760326	     45.49141496	      0.00000000	      0.00000000
      8.46028571	     -3.61475590	     -4.65832965	     -5.06598751	      0.93280220	      0.91485444	      0.40887908	     28.20893760	     -6.73534482	     -5.70643607	     60.71388982	     60.71388982	     10.55192143	    -19.28428323	     15.48642407	     15.50662085	     -0.59679132	     -1.65741607	     31.93780144	     31.93780144	     22.30508830	    -17.23180744	      8.09783473	    -11.75013042	      7.28371655	      1.22448003	     -1.03314653	    -12.89678843	    -15.87477282	     21.03504944	     47.32855311	      0.00000000	      0.00000000	     22.55323553	    -16.44583112	      8.55115276	     42.86360023	     45.96226875	      0.00000000	      0.00000000
      8.48121429	     -3.89614245	     -4.80054103	     -5.88915068	      0.93078371	      0.91727131	      0.40999726	     29.42206837	     -5.83216582	     -5.28412762	     57.63567815	     57.63567815	     10.67326071	    -19.09417639	     14.21876382	     14.63547703	     -0.95530408	     -2.45865416	     30.47966407	     30.47966407	     21.94127254	    -16.91623574	      7.97725341	    -11.66528360	      7.60282953	      1.42576323	     -3.87472413	    -12.52101108	    -16.21345450	     20.46559795	     47.35819483	      0.00000000	      0.00000000	     23.88965049	    -16.85071586	      7.08706471	     44.92290058	     46.15199379	      0.00000000	      0.00000000
      8.50214286	     -4.30711899	     -5.00455893	     -6.69534153	      0.92863974	      0.91980738	      0.41153687	     30.50717436	     -4.75863342	     -4.91812264	     54.06417763	     54.06417763	     10.89346747	    -18.65122863	     13.83739537	     13.80285999	     -1.40004684	     -3.27292637	     28.84555962	     28.84555962	     21.68166082	    -16.46342741	      8.20490055	    -11.35932910	      7.99384455	      1.00575966	     -6.01646079	    -12.16804812	    -16.34726354	     19.99632182	     47.36809229	      0.00000000	      0.00000000	     25.15417016	    -17.87549729	      6.37258033	     45.99026240	     46.24458667	      0.00000000	      0.00000000
      8.52307143	     -4.45116111	     -5.12986910	     -7.57800346	      0.92678752	      0.92278033	      0.41331829	     30.63556379	     -3.92548531	     -4.87629770	     49.27644536	     49.27644536	      8.23834735	    -18.24555223	      4.89770070	     12.40585491	     -1.73847018	     -4.34201241	     26.68937680	     26.68937680	     20.52649414	    -16.10693437	      6.35777694	    -11.60896520	      8.23488350	      0.82910103	     -8.72457616	    -11.83155806	    -17.62529386	     21.92988892	     47.35092342	      0.00000000	      0.00000000	     25.05970606	    -18.12755801	      1.17933985	     51.22874586	     46.79781600	      0.00000000	      0.00000000
      8.54400000	     -4.75146399	     -5.27945914	     -8.39999488	      0.92479139	      0.92526304	      0.41543657	     30.86571740	     -2.94244149	     -4.73820755	     44.55257967	     44.55257967	      7.23810040	    -16.93109746	      1.62802307	     11.29623421	     -2.10822021	     -5.34081533	     24.79512583	     24.79512583	     20.00012073	    -15.48735745	      5.93101804	    -11.57835672	      8.48132932	      0.66792107	    -10.86369502	    -11.50406479	    -18.13725888	     22.92309422	     47.30818439	      0.00000000	      0.00000000	     25.71799167	    -19.00685133	     -0.61090888	     54.46270937	     47.00219775	      0.00000000	      0.00000000
      8.56492857	     -5.15308299	     -5.38196523	     -9.15442476	      0.92275064	      0.92722033	      0.41764876	     31.03145315	     -2.05482172	     -4.74991186	     39.80693623	     39.80693623	      7.18350985	    -14.39229942	      1.62060014	     10.40015581	     -2.39638805	     -6.17530629	     23.09478989	     23.09478989	     19.73835696	    -14.84304329	      6.17873026	    -11.30926054	      8.72671895	      0.71862197	    -12.41875476	    -11.29222302	    -18.20360233	     22.63214483	     47.30734876	      0.00000000	      0.00000000	     27.15544321	    -19.74967132	     -1.20255008	     55.79311797	     47.08068593	      0.00000000	      0.00000000
      8.58585714	     -5.28836845	     -5.34416205	     -9.87764988	      0.92106670	      0.92869542	      0.41995026	     30.63185082	     -1.52781884	     -5.19940047	     34.84309493	     34.84309493	      6.34729184	    -11.01839350	     -0.93138310	      9.20703367	     -2.50564224	     -7.26091977	     21.36504328	     21.36504328	     19.15127583	    -14.09491890	      5.07904478	    -11.49195434	      8.70181884	      0.62289710	    -14.43989456	    -11.02134784	    -18.76019914	     24.94615573	     47.19729366	      0.00000000	      0.00000000	     27.46103453	    -20.36082881	     -3.91870697	     60.29074582	     47.36396920	      0.00000000	      0.00000000
      8.60678571	     -5.45306119	     -5.22293582	    -10.50902793	      0.91953418	      0.92940164	      0.42227689	     30.19560080	     -1.09880768	     -5.77094409	     30.17422579	     30.17422579	      6.14327060	     -7.08526263	     -0.84325252	      8.22970207	     -2.49068978	     -8.17557892	     19.98040629	     19.98040629	     18.98531458	    -13.36662000	      4.72723950	    -11.45866000	      8.61747429	      0.78542067	    -15.70328904	    -10.82943396	    -18.77721928	     25.31163328	     47.15330341	      0.00000000	      0.00000000	     28.77982025	    -20.87328024	     -4.89947482	     62.32370783	     47.47894597	      0.00000000	      0.00000000
      8.62771429	     -5.70839625	     -5.10130567	    -11.02432446	      0.91819010	      0.92928245	      0.42471982	     29.68142964	     -0.54269516	     -6.09104372	     25.62692328	     25.62692328	      5.68396373	     -3.99055491	     -0.03577957	      7.55204329	     -2.47830390	     -8.84713585	     18.99118092	     18.99118092	     19.01207391	    -12.86896003	      4.55109837	    -11.22088449	      8.59882257	      0.78804632	    -16.47095880	    -10.59281614	    -18.80465460	     25.49695332	     47.13350372	      0.00000000	      0.00000000	     30.11907828	    -21.43172433	     -5.44611454	     63.67747249	     47.54969149	      0.00000000	      0.00000000
      8.64864286	     -5.63722706	     -4.89065992	    -11.46635596	      0.91743229	      0.92879858	      0.42712189	     28.86290633	     -0.32473794	     -6.95090094	     21.73708057	     21.73708057	      5.43192698	     -0.14004233	      0.88664563	      6.56402305	     -2.31126226	     -9.62186863	     18.11113404	     18.11113404	     19.13315471	    -12.18295114	      3.99628883	    -11.33505658	      8.41573438	      0.96437252	    -17.31043291	    -10.48058241	    -18.90716374	     26.06382771	     47.10007156	      0.00000000	      0.00000000	     31.37795708	    -21.86739105	     -6.29912802	     65.67958696	     47.65433046	      0.00000000	      0.00000000
      8.66957143	     -5.65017189	     -4.49432256	    -11.83164317	      0.91697609	      0.92742296	      0.42946706	     28.41823072	     -0.43351149	     -8.22223106	     18.90913674	     18.90913674	      5.58967527	      3.96629236	      2.65120155	      5.81053048	     -1.98814144	    -10.49772166	     17.42871553	     17.42871553	     19.03540358	    -11.39500458	      2.41937057	    -11.33940781	      8.06837949	      0.78405314	    -18.12790020	    -10.31765068	    -19.06907777	     27.96327870	     46.99719204	      0.00000000	      0.00000000	     31.88622836	    -22.22061574	     -8.05953612	     68.78874788	     47.83441880	      0.00000000	      0.00000000
      8.69050000	     -5.64942557	     -4.26714926	    -12.10614582	      0.91690324	      0.92594319	      0.43205740	     27.71371960	     -0.17226948	     -8.68355517	     16.18713602	     16.18713602	      5.09377371	      5.92240240	      3.70978071	      5.13625328	     -1.79736970	    -10.87453656	     17.03886347	     17.03886347	     19.29835469	    -11.18414567	      1.85890770	    -11.24148758	      7.94234648	      0.81317877	    -18.27022600	    -10.24755027	    -19.01382248	     28.33871488	     46.96691604	      0.00000000	      0.00000000	     32.95948383	    -22.53088623	     -8.60991090	     69.95697666	     47.89847099	      0.00000000	      0.00000000
      8.71142857	     -5.61848073	     -3.96102134	    -12.31673036	      0.91728166	      0.92428870	      0.43467585	     27.11973482	     -0.12662867	     -9.35398567	     14.27801611	     14.27801611	      4.64136500	      7.85440942	      4.40766520	      4.44432765	     -1.53129956	    -11.31353636	     16.68432390	     16.68432390	     19.58092437	    -10.77259769	      1.21317860	    -11.13768168	      7.76847784	      0.89969661	    -18.24789768	    -10.15706615	    -18.96283857	     28.71323977	     46.93898161	      0.00000000	      0.00000000	     33.88524511	    -22.64888914	     -9.17668578	     71.19287794	     47.96457902	      0.00000000	      0.00000000
      8.73235714	     -5.61709351	     -3.64378463	    -12.46241063	      0.91802151	      0.92252972	      0.43742834	     26.69531102	     -0.15097806	     -9.85301770	     13.13353448	     13.13353448	      4.15912726	      9.11933008	      4.64677412	      3.81914567	     -1.26706483	    -11.64382977	     16.42812510	     16.42812510	     19.91056118	    -10.39505316	      0.63534460	    -10.97571224	      7.60650399	      0.96209698	    -18.01147983	    -10.12063971	    -18.92375696	     29.01696455	     46.91854458	      0.00000000	      0.00000000	     34.71467525	    -22.76258158	     -9.69400402	     72.22429878	     48.02269497	      0.00000000	      0.00000000
